<svg xmlns="http://www.w3.org/2000/svg" width="24" height="24"><path fill="#b32323" d="M17.55.875V3.3H4.875L16.6.15a.677.677 0 0 1 .65.125c.2.15.3.375.3.6zM18.575 4.5c.425 0 .775.35.75.775V23.1c0 .4-.325.75-.75.75H4.9c-.4 0-.75-.325-.75-.75V4.5h14.425zm-7.95 14.975V8.1c0-.125-.05-.225-.15-.275a.361.361 0 0 0-.175-.05c-.025 0-.075 0-.125.025A3.616 3.616 0 0 0 8.65 9.075a3.734 3.734 0 0 0-.625 1.9l-.1 2.975c0 .25.075.475.25.65.15.175.375.275.625.275h.425l-.7 4.425c-.05.3.05.625.25.85.2.25.5.375.8.375.575 0 1.05-.475 1.05-1.05zM15.6 11.65h.025V8.2c0-.2-.175-.35-.35-.35-.2 0-.35.15-.35.35v2.975c0 .125-.125.25-.25.25h-.25a.269.269 0 0 1-.25-.25V8.2c0-.2-.15-.35-.35-.35-.2 0-.35.15-.35.35v2.975c0 .125-.1.25-.25.25h-.25a.25.25 0 0 1-.25-.25V8.2c0-.2-.15-.35-.35-.35-.2 0-.35.15-.35.35v3.425c0 .475.4.875.875.875h.25v.05l-.425 6.85c0 .3.1.575.3.8.2.2.475.325.775.325h.025c.3 0 .55-.1.775-.325a.983.983 0 0 0 .3-.8l-.425-6.875h.25c.475 0 .875-.4.875-.875z"/></svg>